<svg xmlns="http://www.w3.org/2000/svg" xmlns:xlink="http://www.w3.org/1999/xlink" width="500" zoomAndPan="magnify" viewBox="0 0 375 374.999991" height="500" preserveAspectRatio="xMidYMid meet" version="1.0"><defs><clipPath id="b74358a883"><path d="M 60 196 L 259 196 L 259 367.8125 L 60 367.8125 Z M 60 196 " clip-rule="nonzero"/></clipPath><clipPath id="1cf684eaeb"><path d="M 116 7.0625 L 315 7.0625 L 315 179 L 116 179 Z M 116 7.0625 " clip-rule="nonzero"/></clipPath><clipPath id="b21b592fd3"><path d="M 160 64 L 367.8125 64 L 367.8125 233 L 160 233 Z M 160 64 " clip-rule="nonzero"/></clipPath><clipPath id="327bb48a18"><path d="M 7.0625 142 L 215 142 L 215 311 L 7.0625 311 Z M 7.0625 142 " clip-rule="nonzero"/></clipPath></defs><rect x="-37.5" width="450" fill="#ffffff" y="-37.499999" height="449.999989" fill-opacity="1"/><rect x="-37.5" width="450" fill="#ffffff" y="-37.499999" height="449.999989" fill-opacity="1"/><g clip-path="url(#b74358a883)"><path fill="#240046" d="M 256.148438 268.824219 C 259.011719 238.757812 258.53125 210.496094 258.003906 196.554688 L 225.570312 252.730469 L 225.621094 252.800781 C 225.609375 252.808594 225.558594 252.839844 225.476562 252.898438 L 225.363281 253.089844 L 225.183594 253.089844 C 221.191406 255.734375 190.3125 275.941406 153.75 292.65625 C 130.765625 303.164062 110.03125 310.273438 92.125 313.785156 C 80.5625 316.050781 70.144531 316.816406 60.925781 316.082031 C 93.496094 348.136719 138.179688 367.914062 187.484375 367.914062 C 201.03125 367.914062 214.222656 366.417969 226.914062 363.589844 C 233.585938 355.710938 239.277344 344.960938 243.910156 331.441406 C 249.679688 314.605469 253.796875 293.539062 256.152344 268.824219 Z M 256.148438 268.824219 " fill-opacity="1" fill-rule="nonzero"/></g><g clip-path="url(#1cf684eaeb)"><path fill="#240046" d="M 149.601562 121.871094 L 149.78125 121.871094 C 153.773438 119.226562 184.652344 99.023438 221.214844 82.308594 C 244.203125 71.800781 264.9375 64.691406 282.839844 61.179688 C 294.402344 58.910156 304.824219 58.148438 314.039062 58.882812 C 281.472656 26.828125 236.785156 7.050781 187.480469 7.050781 C 173.9375 7.050781 160.742188 8.542969 148.050781 11.375 C 141.378906 19.253906 135.691406 30.003906 131.058594 43.519531 C 125.289062 60.355469 121.171875 81.425781 118.816406 106.136719 C 115.953125 136.203125 116.433594 164.46875 116.960938 178.40625 L 149.394531 122.230469 L 149.347656 122.160156 C 149.355469 122.152344 149.40625 122.121094 149.492188 122.066406 Z M 149.601562 121.871094 " fill-opacity="1" fill-rule="nonzero"/></g><g clip-path="url(#b21b592fd3)"><path fill="#240046" d="M 283.957031 66.640625 C 266.492188 70.0625 246.1875 77.027344 223.609375 87.347656 C 196.136719 99.898438 171.902344 114.449219 160.09375 121.875 L 224.957031 121.875 L 224.996094 121.796875 C 225.007812 121.804688 225.058594 121.828125 225.148438 121.875 L 225.371094 121.875 L 225.460938 122.03125 C 229.75 124.164062 262.683594 140.804688 295.441406 164.109375 C 316.039062 178.765625 332.5625 193.164062 344.554688 206.914062 C 352.320312 215.816406 358.199219 224.480469 362.175781 232.851562 C 365.925781 218.355469 367.925781 203.152344 367.925781 187.484375 C 367.925781 140.335938 349.839844 97.417969 320.234375 65.273438 C 310.085938 63.445312 297.953125 63.898438 283.957031 66.640625 Z M 283.957031 66.640625 " fill-opacity="1" fill-rule="nonzero"/></g><path fill="#240046" d="M 340.367188 210.601562 C 328.671875 197.1875 312.484375 183.085938 292.257812 168.6875 C 267.652344 151.175781 242.933594 137.460938 230.601562 130.945312 L 263.03125 187.121094 L 263.117188 187.113281 C 263.117188 187.128906 263.121094 187.1875 263.128906 187.289062 L 263.242188 187.480469 L 263.152344 187.632812 C 263.445312 192.417969 265.503906 229.257812 261.699219 269.28125 C 259.304688 294.445312 255.097656 315.953125 249.183594 333.214844 C 245.359375 344.390625 240.792969 353.816406 235.535156 361.441406 C 294.585938 345.164062 341.503906 299.628906 359.714844 241.40625 C 356.230469 231.683594 349.761719 221.375 340.367188 210.597656 Z M 340.367188 210.601562 " fill-opacity="1" fill-rule="nonzero"/><g clip-path="url(#327bb48a18)"><path fill="#240046" d="M 91.019531 308.316406 C 108.484375 304.894531 128.789062 297.929688 151.371094 287.609375 C 178.839844 275.058594 203.074219 260.507812 214.882812 253.082031 L 150.019531 253.082031 L 149.984375 253.160156 C 149.972656 253.152344 149.917969 253.125 149.828125 253.082031 L 149.605469 253.082031 L 149.515625 252.925781 C 145.226562 250.792969 112.292969 234.152344 79.535156 210.84375 C 58.9375 196.191406 42.414062 181.792969 30.421875 168.042969 C 22.65625 159.140625 16.777344 150.476562 12.804688 142.105469 C 9.050781 156.601562 7.050781 171.804688 7.050781 187.472656 C 7.050781 234.621094 25.136719 277.539062 54.746094 309.683594 C 64.890625 311.511719 77.027344 311.058594 91.019531 308.316406 Z M 91.019531 308.316406 " fill-opacity="1" fill-rule="nonzero"/></g><path fill="#240046" d="M 34.597656 164.363281 C 46.292969 177.78125 62.480469 191.882812 82.707031 206.277344 C 107.3125 223.792969 132.027344 237.503906 144.363281 244.019531 L 111.929688 187.847656 L 111.84375 187.851562 C 111.84375 187.839844 111.839844 187.78125 111.835938 187.679688 L 111.722656 187.484375 L 111.8125 187.332031 C 111.515625 182.550781 109.457031 145.707031 113.265625 105.683594 C 115.65625 80.519531 119.867188 59.011719 125.777344 41.75 C 129.605469 30.574219 134.167969 21.148438 139.429688 13.523438 C 80.378906 29.800781 33.457031 75.335938 15.246094 133.558594 C 18.734375 143.28125 25.203125 153.589844 34.597656 164.367188 Z M 34.597656 164.363281 " fill-opacity="1" fill-rule="nonzero"/></svg>